<?xml version="1.0" standalone="no"?>
<!DOCTYPE svg PUBLIC "-//W3C//DTD SVG 20010904//EN"
 "http://www.w3.org/TR/2001/REC-SVG-20010904/DTD/svg10.dtd">
<svg version="1.0" xmlns="http://www.w3.org/2000/svg"
 width="700.000000pt" height="700.000000pt" viewBox="0 0 700.000000 700.000000"
 preserveAspectRatio="xMidYMid meet">
<metadata>
Created by potrace 1.14, written by Peter Selinger 2001-2017
</metadata>
<g transform="translate(0.000000,700.000000) scale(0.100000,-0.100000)"
fill="#000000" stroke="none">
<path d="M3195 6558 c-133 -13 -153 -17 -231 -43 -194 -65 -340 -190 -438
-376 -38 -71 -78 -172 -91 -229 -7 -29 -34 -165 -41 -205 -4 -22 -8 -769 -10
-1660 -2 -891 -3 -1652 -4 -1692 l0 -72 -37 1 c-73 2 -259 -13 -353 -28 -405
-64 -697 -240 -891 -536 -78 -118 -167 -323 -194 -444 -2 -11 -13 -59 -24
-109 -10 -49 -22 -112 -25 -140 -3 -27 -9 -70 -12 -95 -14 -116 -22 -476 -10
-487 8 -8 4912 -10 4934 -2 16 6 18 22 16 150 -6 482 -75 786 -246 1091 -31
56 -141 189 -208 252 -176 165 -443 286 -715 322 -27 3 -59 8 -69 10 -24 4
-239 17 -283 17 l-33 -1 -1 1617 c0 1643 -1 1694 -13 1791 -12 91 -16 112 -36
196 -78 331 -275 555 -562 638 -113 33 -295 47 -423 34z"/>
</g>
</svg>
